<svg width="24" height="25" viewBox="0 0 24 25" fill="none" xmlns="http://www.w3.org/2000/svg">
<mask id="mask0_14821_1309" style="mask-type:alpha" maskUnits="userSpaceOnUse" x="0" y="0" width="24" height="25">
<rect y="0.397461" width="24" height="24" fill="#D9D9D9"/>
</mask>
<g mask="url(#mask0_14821_1309)">
<path d="M10.1154 20.2243H13.8846V19.3397H10.1154V20.2243ZM7.3077 22.8974C6.80257 22.8974 6.375 22.7224 6.025 22.3724C5.675 22.0224 5.5 21.5948 5.5 21.0897V3.70516C5.5 3.20003 5.675 2.77246 6.025 2.42246C6.375 2.07246 6.80257 1.89746 7.3077 1.89746H16.6922C17.1974 1.89746 17.625 2.07246 17.975 2.42246C18.325 2.77246 18.5 3.20003 18.5 3.70516V21.0897C18.5 21.5948 18.325 22.0224 17.975 22.3724C17.625 22.7224 17.1974 22.8974 16.6922 22.8974H7.3077ZM6.99997 18.1667V21.0897C6.99997 21.1666 7.03202 21.2372 7.09613 21.3013C7.16024 21.3654 7.23077 21.3974 7.3077 21.3974H16.6922C16.7692 21.3974 16.8397 21.3654 16.9038 21.3013C16.9679 21.2372 17 21.1666 17 21.0897V18.1667H6.99997ZM6.99997 16.6667H17V6.14741H6.99997V16.6667ZM6.99997 4.64746H17V3.70516C17 3.62823 16.9679 3.5577 16.9038 3.49359C16.8397 3.42949 16.7692 3.39744 16.6922 3.39744H7.3077C7.23077 3.39744 7.16024 3.42949 7.09613 3.49359C7.03202 3.5577 6.99997 3.62823 6.99997 3.70516V4.64746Z" fill="#393647"/>
</g>
</svg>
