<svg xmlns="http://www.w3.org/2000/svg" width="20" height="20" viewBox="0 0 20 20">
  <g id="Grupo_20213" data-name="Grupo 20213" transform="translate(-2 -2)">
    <path id="Trazado_17865" data-name="Trazado 17865" d="M10.325,4.317a1.724,1.724,0,0,1,3.35,0,1.724,1.724,0,0,0,2.573,1.066,1.725,1.725,0,0,1,2.37,2.37,1.724,1.724,0,0,0,1.065,2.572,1.724,1.724,0,0,1,0,3.35,1.724,1.724,0,0,0-1.066,2.573,1.725,1.725,0,0,1-2.37,2.37,1.724,1.724,0,0,0-2.572,1.065,1.724,1.724,0,0,1-3.35,0,1.724,1.724,0,0,0-2.573-1.066,1.725,1.725,0,0,1-2.37-2.37,1.724,1.724,0,0,0-1.065-2.572,1.724,1.724,0,0,1,0-3.35A1.724,1.724,0,0,0,5.383,7.752a1.725,1.725,0,0,1,2.37-2.37,1.723,1.723,0,0,0,2.572-1.065Z" fill="none" stroke="#818181" stroke-linecap="round" stroke-linejoin="round" stroke-width="2"/>
    <path id="Trazado_17866" data-name="Trazado 17866" d="M15,12a3,3,0,1,1-3-3,3,3,0,0,1,3,3Z" fill="none" stroke="#818181" stroke-linecap="round" stroke-linejoin="round" stroke-width="2"/>
  </g>
</svg>
