<svg width="25" height="25" viewBox="0 0 25 25" fill="none" xmlns="http://www.w3.org/2000/svg">
<mask id="mask0_1403_51" style="mask-type:alpha" maskUnits="userSpaceOnUse" x="0" y="0" width="25" height="25">
<rect x="0.5" y="0.5" width="24" height="24" fill="#D9D9D9"/>
</mask>
<g mask="url(#mask0_1403_51)">
<path d="M8.37503 7.24615L11.0789 3.69808C11.2583 3.45789 11.4715 3.2815 11.7183 3.1689C11.9651 3.0563 12.2257 3 12.5 3C12.7744 3 13.0349 3.0563 13.2817 3.1689C13.5285 3.2815 13.7417 3.45789 13.9212 3.69808L16.625 7.24615L20.7596 8.6423C21.1545 8.76923 21.4625 8.99314 21.6836 9.31403C21.9048 9.63493 22.0154 9.98941 22.0154 10.3775C22.0154 10.5566 21.9892 10.7351 21.9368 10.9132C21.8845 11.0912 21.7985 11.2618 21.6788 11.425L18.9865 15.1615L19.0865 19.1269C19.1032 19.6534 18.9296 20.0973 18.5659 20.4583C18.2021 20.8194 17.7782 21 17.2942 21C17.2801 21 17.1128 20.9782 16.7923 20.9346L12.5 19.7038L8.20771 20.9346C8.12437 20.9679 8.03836 20.9871 7.94968 20.9923C7.861 20.9974 7.7797 21 7.70578 21C7.21733 21 6.79234 20.8194 6.43081 20.4583C6.06927 20.0973 5.89684 19.6534 5.91351 19.1269L6.01351 15.1365L3.33658 11.425C3.21691 11.2611 3.13091 11.0899 3.07856 10.9112C3.02621 10.7324 3.00003 10.5537 3.00003 10.375C3.00003 9.99786 3.10988 9.64714 3.32958 9.32283C3.54928 8.99849 3.8561 8.76845 4.25003 8.6327L8.37503 7.24615ZM9.30193 8.53843L4.73078 10.0615C4.63463 10.0936 4.56892 10.1593 4.53366 10.2586C4.49841 10.358 4.51283 10.4494 4.57693 10.5327L7.52308 14.6904L7.41346 19.1577C7.40706 19.2666 7.44552 19.3532 7.52886 19.4173C7.61219 19.4814 7.70515 19.4974 7.80773 19.4654L12.5 18.1481L17.1923 19.4904C17.2949 19.5224 17.3878 19.5064 17.4712 19.4423C17.5545 19.3782 17.593 19.2916 17.5866 19.1827L17.4769 14.6904L20.4231 10.5827C20.4872 10.4994 20.5016 10.408 20.4664 10.3086C20.4311 10.2093 20.3654 10.1436 20.2692 10.1115L15.6981 8.53843L12.7404 4.6346C12.6827 4.55127 12.6026 4.5096 12.5 4.5096C12.3974 4.5096 12.3173 4.55127 12.2596 4.6346L9.30193 8.53843Z" fill="#69657B"/>
</g>
</svg>
