<svg width="20" height="24" viewBox="0 0 20 24" fill="none" xmlns="http://www.w3.org/2000/svg">
<path d="M10 15.0667C11.1333 14.0222 12.05 13.1611 12.75 12.4833C13.45 11.8056 13.9889 11.2222 14.3667 10.7333C14.7444 10.2444 15 9.81667 15.1333 9.45C15.2667 9.08333 15.3333 8.68889 15.3333 8.26667C15.3333 7.46667 15.0444 6.77778 14.4667 6.2C13.8889 5.62222 13.2 5.33333 12.4 5.33333C11.9333 5.33333 11.4833 5.42778 11.05 5.61667C10.6167 5.80556 10.2667 6.06667 10 6.4C9.73333 6.06667 9.38889 5.80556 8.96667 5.61667C8.54445 5.42778 8.08889 5.33333 7.6 5.33333C6.8 5.33333 6.11111 5.62222 5.53333 6.2C4.95556 6.77778 4.66667 7.46667 4.66667 8.26667C4.66667 8.68889 4.72778 9.07778 4.85 9.43333C4.97222 9.78889 5.22222 10.2111 5.6 10.7C5.97778 11.1889 6.51111 11.7722 7.2 12.45C7.88889 13.1278 8.82222 14 10 15.0667ZM0.666668 24V2.66667C0.666668 1.93333 0.927779 1.30556 1.45 0.783333C1.97222 0.261111 2.6 0 3.33333 0H16.6667C17.4 0 18.0278 0.261111 18.55 0.783333C19.0722 1.30556 19.3333 1.93333 19.3333 2.66667V24L10 20L0.666668 24ZM3.33333 19.9333L10 17.0667L16.6667 19.9333V2.66667H3.33333V19.9333Z" fill="#69657B"/>
</svg>
