<svg width="66" height="66" viewBox="0 0 66 66" fill="none" xmlns="http://www.w3.org/2000/svg">
<g clip-path="url(#clip0_32057_4763)">
<path d="M33.2211 29.9995C37.1685 29.9995 40.3685 26.7655 40.3685 22.7761C40.3685 18.7868 37.1685 15.5527 33.2211 15.5527C29.2737 15.5527 26.0737 18.7868 26.0737 22.7761C26.0737 26.7655 29.2737 29.9995 33.2211 29.9995Z" fill="url(#paint0_linear_32057_4763)"/>
<path d="M39.9273 22.9497C40.3962 19.101 37.6331 15.5899 33.7557 15.1073C29.8783 14.6248 26.3549 17.3536 25.8859 21.2023C25.417 25.0509 28.1801 28.5621 32.0575 29.0446C35.9349 29.5271 39.4583 26.7984 39.9273 22.9497Z" fill="url(#paint1_linear_32057_4763)" stroke="url(#paint2_linear_32057_4763)" stroke-width="0.1" stroke-miterlimit="10"/>
<path d="M32.6648 26.6993C34.3423 26.6048 35.6418 25.4345 35.5674 24.0852C35.493 22.736 34.0728 21.7188 32.3953 21.8133C30.7178 21.9078 29.4182 23.0782 29.4926 24.4274C29.567 25.7766 30.9872 26.7938 32.6648 26.6993Z" fill="url(#paint3_linear_32057_4763)"/>
<path d="M32.5916 26.5224C34.2343 26.4299 35.508 25.3039 35.4365 24.0075C35.365 22.711 33.9754 21.7351 32.3327 21.8276C30.6901 21.9201 29.4164 23.0461 29.4879 24.3425C29.5593 25.639 30.949 26.615 32.5916 26.5224Z" fill="url(#paint4_linear_32057_4763)"/>
<path d="M32.7685 21.7549C34.1056 21.7549 35.1895 20.6595 35.1895 19.3081C35.1895 17.9568 34.1056 16.8613 32.7685 16.8613C31.4314 16.8613 30.3474 17.9568 30.3474 19.3081C30.3474 20.6595 31.4314 21.7549 32.7685 21.7549Z" fill="url(#paint5_linear_32057_4763)"/>
<path d="M32.6315 21.5955C33.9221 21.5955 34.9684 20.5381 34.9684 19.2338C34.9684 17.9294 33.9221 16.8721 32.6315 16.8721C31.3409 16.8721 30.2947 17.9294 30.2947 19.2338C30.2947 20.5381 31.3409 21.5955 32.6315 21.5955Z" fill="url(#paint6_linear_32057_4763)"/>
<path d="M19.9892 43.8605C20.621 39.9226 17.9093 36.2019 13.9325 35.5503C9.95563 34.8986 6.2196 37.5626 5.58781 41.5006C4.95602 45.4385 7.66771 49.1591 11.6445 49.8108C15.6214 50.4625 19.3574 47.7985 19.9892 43.8605Z" fill="url(#paint7_linear_32057_4763)"/>
<path d="M18.7373 43.5033C19.2105 39.6196 16.5444 36.0917 12.7824 35.6236C9.02038 35.1554 5.58707 37.9242 5.11388 41.8079C4.64068 45.6915 7.30679 49.2194 11.0688 49.6876C14.8308 50.1557 18.2641 47.3869 18.7373 43.5033Z" fill="url(#paint8_linear_32057_4763)" stroke="url(#paint9_linear_32057_4763)" stroke-width="0.1" stroke-miterlimit="10"/>
<path d="M11.7763 47.0548C13.4538 46.9603 14.7534 45.7899 14.679 44.4407C14.6046 43.0914 13.1844 42.0743 11.5069 42.1688C9.82937 42.2632 8.5298 43.4336 8.60421 44.7829C8.67861 46.1321 10.0988 47.1493 11.7763 47.0548Z" fill="url(#paint10_linear_32057_4763)"/>
<path d="M11.7032 46.8779C13.3459 46.7854 14.6196 45.6594 14.5481 44.3629C14.4766 43.0665 13.087 42.0905 11.4443 42.1831C9.80162 42.2756 8.52793 43.4016 8.59942 44.698C8.67092 45.9945 10.0605 46.9704 11.7032 46.8779Z" fill="url(#paint11_linear_32057_4763)"/>
<path d="M11.9159 42.0743C13.253 42.0743 14.337 40.9788 14.337 39.6275C14.337 38.2761 13.253 37.1807 11.9159 37.1807C10.5788 37.1807 9.49487 38.2761 9.49487 39.6275C9.49487 40.9788 10.5788 42.0743 11.9159 42.0743Z" fill="url(#paint12_linear_32057_4763)"/>
<path d="M11.779 41.9041C13.0696 41.9041 14.1158 40.8467 14.1158 39.5424C14.1158 38.238 13.0696 37.1807 11.779 37.1807C10.4884 37.1807 9.44214 38.238 9.44214 39.5424C9.44214 40.8467 10.4884 41.9041 11.779 41.9041Z" fill="url(#paint13_linear_32057_4763)"/>
<path d="M35.0001 29.8831C34.8317 29.5534 34.5896 29.3193 34.3369 29.1172L34.2422 33.7129L34.9264 33.9576L35.0106 29.8938L35.0001 29.8831Z" fill="url(#paint14_linear_32057_4763)"/>
<path d="M31.0316 29.1172C32.0526 29.2448 32.8737 29.2023 34.3369 29.1172L34.2632 33.2129C34.2632 33.2129 34.2842 33.6597 34.4632 33.7874L34.2316 33.7129C33.1263 33.5108 31.9895 33.5108 30.8316 33.7448H30.6316C30.6316 33.7448 30.8421 33.6278 30.8947 33.1278C30.9369 32.7768 31.0421 29.2768 31.0316 29.1172Z" fill="url(#paint15_linear_32057_4763)"/>
<path opacity="0.8" d="M34.5474 33.8087C34.6527 33.8725 34.7895 33.9044 34.9158 33.9044C34.8421 33.83 34.7579 33.83 34.6 33.7555C34.5053 33.7023 34.4316 33.6172 34.379 33.5321C34.379 33.5321 34.3685 33.5108 34.3579 33.5002C34.3474 33.4895 34.3369 33.4895 34.3264 33.5002C34.2737 33.5214 34.3685 33.6385 34.379 33.6704C34.4211 33.7342 34.4737 33.7768 34.5474 33.8087Z" fill="url(#paint16_radial_32057_4763)"/>
<path d="M23.6106 40.617C23.6106 40.617 23.3896 40.8404 22.8317 40.8191C22.2738 40.7978 18.8317 40.8191 18.8317 40.8191C18.9685 41.9042 19.0212 42.6808 18.8317 44.0638C18.8317 44.0638 18.7896 44.2659 18.9159 44.3191L19.7054 44.6383L23.5791 44.6808C23.2843 43.3936 23.3054 42.0957 23.6106 40.7978C23.6106 40.7978 23.6422 40.7234 23.6106 40.5957V40.617Z" fill="url(#paint17_linear_32057_4763)"/>
<path d="M41.6534 43.9246C42.2658 38.898 38.8052 34.3307 33.9238 33.7232C29.0425 33.1157 24.5888 36.6981 23.9764 41.7247C23.3639 46.7513 26.8246 51.3186 31.7059 51.9261C36.5873 52.5336 41.0409 48.9512 41.6534 43.9246Z" fill="url(#paint18_linear_32057_4763)"/>
<path d="M41.1136 43.8123C41.726 38.7857 38.2654 34.2184 33.384 33.6109C28.5027 33.0034 24.049 36.5858 23.4366 41.6124C22.8241 46.639 26.2848 51.2063 31.1661 51.8138C36.0475 52.4213 40.5011 48.8389 41.1136 43.8123Z" fill="url(#paint19_linear_32057_4763)" stroke="url(#paint20_linear_32057_4763)" stroke-width="0.1" stroke-miterlimit="10"/>
<path d="M32.2633 41.6066C33.8446 41.6066 35.1265 40.3111 35.1265 38.713C35.1265 37.1149 33.8446 35.8193 32.2633 35.8193C30.682 35.8193 29.4001 37.1149 29.4001 38.713C29.4001 40.3111 30.682 41.6066 32.2633 41.6066Z" fill="url(#paint21_linear_32057_4763)"/>
<path d="M32.1158 41.4894C33.6971 41.4894 34.979 40.1939 34.979 38.5958C34.979 36.9977 33.6971 35.7021 32.1158 35.7021C30.5346 35.7021 29.2527 36.9977 29.2527 38.5958C29.2527 40.1939 30.5346 41.4894 32.1158 41.4894Z" fill="url(#paint22_linear_32057_4763)"/>
<path d="M32.116 35.7978C33.4633 35.7978 34.6107 36.7765 34.8318 38.1276C35.0844 39.6489 34.0633 41.085 32.5686 41.3403C32.4212 41.3616 32.2633 41.3829 32.1054 41.3829C30.7476 41.3829 29.6107 40.4042 29.3897 39.0531C29.137 37.5318 30.1581 36.0957 31.6528 35.8403C31.8002 35.8191 31.9581 35.7978 32.116 35.7978ZM32.116 35.6914C31.9581 35.6914 31.8002 35.702 31.6423 35.734C30.0844 35.9999 29.0212 37.4893 29.2844 39.0744C29.516 40.4893 30.737 41.4893 32.1054 41.4893C32.2633 41.4893 32.4212 41.4786 32.5791 41.4467C34.137 41.1808 35.2002 39.6914 34.937 38.1063C34.7054 36.6914 33.4844 35.6914 32.116 35.6914Z" fill="url(#paint23_linear_32057_4763)"/>
<path d="M32.1053 47.8083C34.0819 47.8083 35.6843 46.5033 35.6843 44.8934C35.6843 43.2836 34.0819 41.9785 32.1053 41.9785C30.1287 41.9785 28.5264 43.2836 28.5264 44.8934C28.5264 46.5033 30.1287 47.8083 32.1053 47.8083Z" fill="url(#paint24_linear_32057_4763)"/>
<path d="M31.8949 47.7556C33.8715 47.7556 35.4738 46.4505 35.4738 44.8407C35.4738 43.2308 33.8715 41.9258 31.8949 41.9258C29.9183 41.9258 28.3159 43.2308 28.3159 44.8407C28.3159 46.4505 29.9183 47.7556 31.8949 47.7556Z" fill="url(#paint25_linear_32057_4763)" stroke="url(#paint26_linear_32057_4763)" stroke-width="0.1" stroke-miterlimit="10"/>
<path d="M46.3789 41.0531L41.5052 41.0106C41.3579 41.0212 41.2421 40.9787 41.1473 40.8936C41.3789 41.9999 41.3368 43.2233 41.1052 44.5319C41.1052 44.7233 41.1579 44.8723 41.2842 44.9574L41.5789 45.2233C41.7052 44.9999 42.0526 44.9361 42.4421 44.9467L46.3789 44.9893V41.0531Z" fill="url(#paint27_linear_32057_4763)"/>
<path d="M60.9406 44.1674C61.4337 40.1205 58.5592 36.4323 54.5202 35.9297C50.4812 35.427 46.8073 38.3002 46.3142 42.3472C45.8211 46.3941 48.6956 50.0823 52.7346 50.5849C56.7735 51.0876 60.4475 48.2143 60.9406 44.1674Z" fill="url(#paint28_linear_32057_4763)"/>
<path d="M60.8615 43.683C61.3546 39.6361 58.4801 35.9479 54.4411 35.4453C50.4021 34.9426 46.7282 37.8159 46.2351 41.8628C45.742 45.9097 48.6165 49.5979 52.6555 50.1005C56.6944 50.6032 60.3684 47.73 60.8615 43.683Z" fill="url(#paint29_linear_32057_4763)" stroke="url(#paint30_linear_32057_4763)" stroke-width="0.1" stroke-miterlimit="10"/>
<path d="M53.6421 47.6597C55.3919 47.6597 56.8105 46.5309 56.8105 45.1385C56.8105 43.746 55.3919 42.6172 53.6421 42.6172C51.8922 42.6172 50.4736 43.746 50.4736 45.1385C50.4736 46.5309 51.8922 47.6597 53.6421 47.6597Z" fill="url(#paint31_linear_32057_4763)"/>
<path d="M53.6001 47.5103C55.3499 47.5103 56.7685 46.3815 56.7685 44.9891C56.7685 43.5966 55.3499 42.4678 53.6001 42.4678C51.8502 42.4678 50.4316 43.5966 50.4316 44.9891C50.4316 46.3815 51.8502 47.5103 53.6001 47.5103Z" fill="url(#paint32_linear_32057_4763)"/>
<path d="M54.1264 42.298C55.5025 42.065 56.4343 40.7676 56.2076 39.4C55.9809 38.0325 54.6816 37.1128 53.3056 37.3457C51.9295 37.5787 50.9977 38.8762 51.2244 40.2437C51.4511 41.6112 52.7504 42.531 54.1264 42.298Z" fill="url(#paint33_linear_32057_4763)"/>
<path d="M54.0298 42.1564C55.4058 41.9234 56.3376 40.626 56.1109 39.2584C55.8842 37.8909 54.5849 36.9712 53.2089 37.2041C51.8328 37.4371 50.901 38.7346 51.1277 40.1021C51.3544 41.4696 52.6537 42.3894 54.0298 42.1564Z" fill="url(#paint34_linear_32057_4763)"/>
<path d="M53.6316 37.2763C54.8106 37.2763 55.8106 38.1167 56.0001 39.2763C56.1053 39.9146 55.9579 40.5423 55.579 41.0742C55.2001 41.5955 54.6422 41.9465 54.0106 42.0529C53.8737 42.0742 53.7369 42.0848 53.6001 42.0848C52.4211 42.0848 51.4211 41.2444 51.2316 40.0848C51.1264 39.4465 51.2737 38.8189 51.6527 38.2869C52.0316 37.7657 52.5895 37.4146 53.2211 37.3082C53.3579 37.2869 53.4948 37.2763 53.6316 37.2763ZM53.6316 37.1699C53.4948 37.1699 53.3474 37.1806 53.2001 37.2018C51.8211 37.4359 50.8948 38.7338 51.1158 40.0955C51.3158 41.3189 52.379 42.1912 53.5895 42.1912C53.7264 42.1912 53.8737 42.1806 54.0211 42.1593C55.4001 41.9252 56.3264 40.6274 56.1053 39.2657C55.9053 38.0423 54.8422 37.1699 53.6316 37.1699Z" fill="url(#paint35_linear_32057_4763)"/>
</g>
<defs>
<linearGradient id="paint0_linear_32057_4763" x1="26.1518" y1="21.6407" x2="40.0568" y2="23.7889" gradientUnits="userSpaceOnUse">
<stop stop-color="#5A1D19"/>
<stop offset="0.18" stop-color="#5F1F1A"/>
<stop offset="0.39" stop-color="#6E251F"/>
<stop offset="0.63" stop-color="#872E27"/>
<stop offset="0.88" stop-color="#A93C32"/>
<stop offset="1" stop-color="#BD4439"/>
</linearGradient>
<linearGradient id="paint1_linear_32057_4763" x1="25.8266" y1="21.2031" x2="39.6519" y2="22.8701" gradientUnits="userSpaceOnUse">
<stop stop-color="#D14D45"/>
<stop offset="1" stop-color="#EE433A"/>
</linearGradient>
<linearGradient id="paint2_linear_32057_4763" x1="32.9108" y1="29.1605" x2="32.9108" y2="15.0009" gradientUnits="userSpaceOnUse">
<stop stop-color="#CC3227"/>
<stop offset="1" stop-color="#CA5854"/>
</linearGradient>
<linearGradient id="paint3_linear_32057_4763" x1="30.1603" y1="24.093" x2="36.1859" y2="24.5507" gradientUnits="userSpaceOnUse">
<stop stop-color="#B08A88"/>
<stop offset="1" stop-color="#EFECEC"/>
</linearGradient>
<linearGradient id="paint4_linear_32057_4763" x1="30.3164" y1="24.005" x2="36.2495" y2="24.4433" gradientUnits="userSpaceOnUse">
<stop stop-color="#E4E6E5"/>
<stop offset="1" stop-color="#E8E9EB"/>
</linearGradient>
<linearGradient id="paint5_linear_32057_4763" x1="30.3579" y1="19.3081" x2="35.1895" y2="19.3081" gradientUnits="userSpaceOnUse">
<stop stop-color="#B08A88"/>
<stop offset="1" stop-color="#EFECEC"/>
</linearGradient>
<linearGradient id="paint6_linear_32057_4763" x1="30.2842" y1="19.2338" x2="34.9684" y2="19.2338" gradientUnits="userSpaceOnUse">
<stop stop-color="#E4E6E5"/>
<stop offset="1" stop-color="#E8E9EB"/>
</linearGradient>
<linearGradient id="paint7_linear_32057_4763" x1="10.2717" y1="44.731" x2="18.5975" y2="38.2072" gradientUnits="userSpaceOnUse">
<stop stop-color="#325920"/>
<stop offset="0.14" stop-color="#365E24"/>
<stop offset="0.31" stop-color="#426D32"/>
<stop offset="0.5" stop-color="#56864A"/>
<stop offset="0.7" stop-color="#72A86A"/>
<stop offset="0.88" stop-color="#91CF8E"/>
</linearGradient>
<linearGradient id="paint8_linear_32057_4763" x1="5.30838" y1="41.8738" x2="18.7411" y2="43.3635" gradientUnits="userSpaceOnUse">
<stop stop-color="#4B9442"/>
<stop offset="1" stop-color="#8DD188"/>
</linearGradient>
<linearGradient id="paint9_linear_32057_4763" x1="7.27678" y1="47.7415" x2="17.5667" y2="38.225" gradientUnits="userSpaceOnUse">
<stop stop-color="#5E825E"/>
<stop offset="1" stop-color="#99D696"/>
</linearGradient>
<linearGradient id="paint10_linear_32057_4763" x1="10.9365" y1="44.6394" x2="16.9622" y2="45.0971" gradientUnits="userSpaceOnUse">
<stop stop-color="#B08A88"/>
<stop offset="1" stop-color="#EFECEC"/>
</linearGradient>
<linearGradient id="paint11_linear_32057_4763" x1="11.1359" y1="44.4802" x2="17.069" y2="44.9186" gradientUnits="userSpaceOnUse">
<stop stop-color="#E4E6E5"/>
<stop offset="1" stop-color="#E8E9EB"/>
</linearGradient>
<linearGradient id="paint12_linear_32057_4763" x1="9.49487" y1="39.6275" x2="14.337" y2="39.6275" gradientUnits="userSpaceOnUse">
<stop stop-color="#B08A88"/>
<stop offset="1" stop-color="#EFECEC"/>
</linearGradient>
<linearGradient id="paint13_linear_32057_4763" x1="9.43161" y1="39.5424" x2="14.1158" y2="39.5424" gradientUnits="userSpaceOnUse">
<stop stop-color="#E4E6E5"/>
<stop offset="1" stop-color="#E8E9EB"/>
</linearGradient>
<linearGradient id="paint14_linear_32057_4763" x1="34.6422" y1="29.564" x2="34.5992" y2="33.7768" gradientUnits="userSpaceOnUse">
<stop stop-color="#131437"/>
<stop offset="0.29" stop-color="#18193B"/>
<stop offset="0.64" stop-color="#272748"/>
<stop offset="1" stop-color="#3E3E5C"/>
</linearGradient>
<linearGradient id="paint15_linear_32057_4763" x1="30.6316" y1="31.3938" x2="34.2737" y2="31.4563" gradientUnits="userSpaceOnUse">
<stop offset="0.09" stop-color="#131437"/>
<stop offset="0.13" stop-color="#171538"/>
<stop offset="0.18" stop-color="#3E3E5C"/>
<stop offset="0.95" stop-color="#8086AA"/>
<stop offset="0.97" stop-color="#5E5F7E"/>
<stop offset="0.98" stop-color="#595C80"/>
<stop offset="0.99" stop-color="#8486A8"/>
<stop offset="1" stop-color="#AAABCC"/>
</linearGradient>
<radialGradient id="paint16_radial_32057_4763" cx="0" cy="0" r="1" gradientUnits="userSpaceOnUse" gradientTransform="translate(37.324 29.2248) rotate(121.589) scale(0.13206 0.448152)">
<stop offset="0.35" stop-color="#3E3E5C" stop-opacity="0"/>
<stop offset="0.38" stop-color="#55556F" stop-opacity="0.1"/>
<stop offset="0.43" stop-color="#88889A" stop-opacity="0.31"/>
<stop offset="0.49" stop-color="#B2B2BE" stop-opacity="0.48"/>
<stop offset="0.54" stop-color="#D4D4DA" stop-opacity="0.62"/>
<stop offset="0.59" stop-color="#EBEBEE" stop-opacity="0.72"/>
<stop offset="0.64" stop-color="#FAFAFA" stop-opacity="0.78"/>
<stop offset="0.67" stop-color="white" stop-opacity="0.8"/>
<stop offset="1" stop-color="#131437" stop-opacity="0"/>
</radialGradient>
<linearGradient id="paint17_linear_32057_4763" x1="21.2106" y1="40.7766" x2="21.2644" y2="44.6595" gradientUnits="userSpaceOnUse">
<stop stop-color="#1F1F2B"/>
<stop offset="0.07" stop-color="#545575"/>
<stop offset="0.82" stop-color="#3E3E54"/>
<stop offset="0.93" stop-color="#1D1A21"/>
<stop offset="1" stop-color="#120E11"/>
</linearGradient>
<linearGradient id="paint18_linear_32057_4763" x1="28.9081" y1="50.4893" x2="36.7643" y2="35.4294" gradientUnits="userSpaceOnUse">
<stop stop-color="#152360"/>
<stop offset="1" stop-color="#4A75CC"/>
</linearGradient>
<linearGradient id="paint19_linear_32057_4763" x1="23.6949" y1="41.5831" x2="41.1743" y2="43.5444" gradientUnits="userSpaceOnUse">
<stop stop-color="#5386D8"/>
<stop offset="1" stop-color="#578CDA"/>
</linearGradient>
<linearGradient id="paint20_linear_32057_4763" x1="28.1299" y1="50.6453" x2="37.7298" y2="35.0767" gradientUnits="userSpaceOnUse">
<stop stop-color="#4A92FF"/>
<stop offset="1" stop-color="#598DDC"/>
</linearGradient>
<linearGradient id="paint21_linear_32057_4763" x1="29.4195" y1="38.7266" x2="35.1498" y2="38.7266" gradientUnits="userSpaceOnUse">
<stop stop-color="#8A93AD"/>
<stop offset="1" stop-color="#D7D9E4"/>
</linearGradient>
<linearGradient id="paint22_linear_32057_4763" x1="29.2701" y1="38.6029" x2="35.0004" y2="38.6029" gradientUnits="userSpaceOnUse">
<stop stop-color="#E3E3E3"/>
<stop offset="1" stop-color="#E2E4E6"/>
</linearGradient>
<linearGradient id="paint23_linear_32057_4763" x1="32.116" y1="41.4893" x2="32.1052" y2="35.6914" gradientUnits="userSpaceOnUse">
<stop stop-color="#4A4A4A" stop-opacity="0.3"/>
<stop offset="0.15" stop-color="#E2E4E6" stop-opacity="0"/>
</linearGradient>
<linearGradient id="paint24_linear_32057_4763" x1="31.2964" y1="44.6805" x2="38.3723" y2="45.5961" gradientUnits="userSpaceOnUse">
<stop stop-color="#404D91"/>
<stop offset="1" stop-color="#D3D7E3"/>
</linearGradient>
<linearGradient id="paint25_linear_32057_4763" x1="31.0754" y1="44.6177" x2="38.1513" y2="45.5332" gradientUnits="userSpaceOnUse">
<stop stop-color="#DADCDD"/>
<stop offset="1" stop-color="#DBDDDF"/>
</linearGradient>
<linearGradient id="paint26_linear_32057_4763" x1="28.2738" y1="44.8407" x2="35.5264" y2="44.8407" gradientUnits="userSpaceOnUse">
<stop stop-color="#E0E0E3"/>
<stop offset="1" stop-color="#DFE4E8" stop-opacity="0.3"/>
</linearGradient>
<linearGradient id="paint27_linear_32057_4763" x1="43.7473" y1="44.7872" x2="43.7796" y2="40.468" gradientUnits="userSpaceOnUse">
<stop offset="0.04" stop-color="#1F1F2B"/>
<stop offset="0.13" stop-color="#545575"/>
<stop offset="0.8" stop-color="#3E3E54"/>
<stop offset="0.87" stop-color="#1D1A21"/>
<stop offset="0.92" stop-color="#120E11"/>
</linearGradient>
<linearGradient id="paint28_linear_32057_4763" x1="46.3608" y1="42.1193" x2="60.7777" y2="43.8314" gradientUnits="userSpaceOnUse">
<stop stop-color="#491C09"/>
<stop offset="1" stop-color="#AF7634"/>
</linearGradient>
<linearGradient id="paint29_linear_32057_4763" x1="46.2761" y1="41.6378" x2="60.7036" y2="43.3603" gradientUnits="userSpaceOnUse">
<stop stop-color="#DEAB33"/>
<stop offset="1" stop-color="#F2BD41"/>
</linearGradient>
<linearGradient id="paint30_linear_32057_4763" x1="49.9165" y1="48.8993" x2="57.524" y2="36.248" gradientUnits="userSpaceOnUse">
<stop stop-color="#EDAF26"/>
<stop offset="1" stop-color="#E8A53D"/>
</linearGradient>
<linearGradient id="paint31_linear_32057_4763" x1="53.0579" y1="44.9639" x2="59.3304" y2="45.7755" gradientUnits="userSpaceOnUse">
<stop stop-color="#B48E71"/>
<stop offset="1" stop-color="#E8E4E5"/>
</linearGradient>
<linearGradient id="paint32_linear_32057_4763" x1="53.0064" y1="44.8087" x2="59.2789" y2="45.6203" gradientUnits="userSpaceOnUse">
<stop stop-color="#E3E5E5"/>
<stop offset="1" stop-color="#EDEEF0"/>
</linearGradient>
<linearGradient id="paint33_linear_32057_4763" x1="56.062" y1="40.6047" x2="53.1509" y2="39.6655" gradientUnits="userSpaceOnUse">
<stop stop-color="#F5EAE6"/>
<stop offset="1" stop-color="#CDB099"/>
</linearGradient>
<linearGradient id="paint34_linear_32057_4763" x1="51.3171" y1="39.6531" x2="56.376" y2="39.64" gradientUnits="userSpaceOnUse">
<stop stop-color="#E3E3E3"/>
<stop offset="1" stop-color="#E2E4E6"/>
</linearGradient>
<linearGradient id="paint35_linear_32057_4763" x1="53.6211" y1="42.1912" x2="53.6211" y2="37.1699" gradientUnits="userSpaceOnUse">
<stop stop-color="#4A4A4A" stop-opacity="0.3"/>
<stop offset="0.15" stop-color="#E2E4E6" stop-opacity="0"/>
</linearGradient>
<clipPath id="clip0_32057_4763">
<rect width="56" height="37" fill="white" transform="translate(5 15)"/>
</clipPath>
</defs>
</svg>
