<svg width="40" height="40" viewBox="0 0 40 40" fill="none" xmlns="http://www.w3.org/2000/svg">
<path d="M5 15.0013C5 13.1604 6.49238 11.668 8.33333 11.668H9.88272C10.9972 11.668 12.038 11.111 12.6562 10.1836L14.0104 8.1523C14.6287 7.22497 15.6694 6.66797 16.7839 6.66797H23.2161C24.3306 6.66797 25.3713 7.22497 25.9896 8.1523L27.3438 10.1836C27.962 11.111 29.0028 11.668 30.1173 11.668H31.6667C33.5076 11.668 35 13.1604 35 15.0013V30.0013C35 31.8423 33.5076 33.3346 31.6667 33.3346H8.33333C6.49238 33.3346 5 31.8423 5 30.0013V15.0013Z" fill="#FED430"/>
<path d="M25 21.668C25 24.4294 22.7614 26.668 20 26.668C17.2386 26.668 15 24.4294 15 21.668C15 18.9065 17.2386 16.668 20 16.668C22.7614 16.668 25 18.9065 25 21.668Z" fill="#FED430"/>
<path d="M5 15.0013C5 13.1604 6.49238 11.668 8.33333 11.668H9.88272C10.9972 11.668 12.038 11.111 12.6562 10.1836L14.0104 8.1523C14.6287 7.22497 15.6694 6.66797 16.7839 6.66797H23.2161C24.3306 6.66797 25.3713 7.22497 25.9896 8.1523L27.3438 10.1836C27.962 11.111 29.0028 11.668 30.1173 11.668H31.6667C33.5076 11.668 35 13.1604 35 15.0013V30.0013C35 31.8423 33.5076 33.3346 31.6667 33.3346H8.33333C6.49238 33.3346 5 31.8423 5 30.0013V15.0013Z" stroke="white" stroke-width="1.5" stroke-linecap="round" stroke-linejoin="round"/>
<path d="M25 21.668C25 24.4294 22.7614 26.668 20 26.668C17.2386 26.668 15 24.4294 15 21.668C15 18.9065 17.2386 16.668 20 16.668C22.7614 16.668 25 18.9065 25 21.668Z" stroke="white" stroke-width="1.5" stroke-linecap="round" stroke-linejoin="round"/>
</svg>
