<svg xmlns="http://www.w3.org/2000/svg" width="19" height="18.996" viewBox="0 0 19 18.996">
  <g id="Grupo_20215" data-name="Grupo 20215" transform="translate(0 0)">
    <g id="Grupo_20216" data-name="Grupo 20216" transform="translate(0 0)">
      <path id="Trazado_17869" data-name="Trazado 17869" d="M0,19l.325-1.184q.5-1.808,1-3.616a.176.176,0,0,0-.02-.148A8.948,8.948,0,0,1,.164,10.666,9.21,9.21,0,0,1,2.583,3.05,9.026,9.026,0,0,1,7.772.171,9.254,9.254,0,0,1,15.6,2.194a9.134,9.134,0,0,1,3.113,4.924,9.386,9.386,0,0,1-2.238,8.692,9.238,9.238,0,0,1-5.266,2.874,9.366,9.366,0,0,1-6.109-.95.226.226,0,0,0-.173-.022q-2.407.632-4.816,1.26C.081,18.98.051,18.985,0,19m2.28-2.243.091-.023c.917-.239,1.834-.476,2.749-.718a.285.285,0,0,1,.244.033,7.845,7.845,0,0,0,4.38,1.191A7.456,7.456,0,0,0,12,16.844a7.742,7.742,0,0,0,4.6-4.02,7.573,7.573,0,0,0,.6-5.117,7.455,7.455,0,0,0-2.139-3.84,7.679,7.679,0,0,0-6.872-2.15,7.422,7.422,0,0,0-4.415,2.4,7.631,7.631,0,0,0-1.9,7.035,7.49,7.49,0,0,0,1.133,2.625.218.218,0,0,1,.032.2c-.184.657-.364,1.314-.545,1.972l-.221.8" transform="translate(0 0)" fill="#818181"/>
      <path id="Trazado_17871" data-name="Trazado 17871" d="M24.65,24.515a.626.626,0,0,0,.137.007.476.476,0,0,1,.528.355c.136.325.27.65.406.975.119.283.236.566.359.847a.484.484,0,0,1-.008.426,3.221,3.221,0,0,1-.594.786c-.173.19-.191.281-.058.5A6.3,6.3,0,0,0,28.462,31.1c.077.032.151.072.228.1a.324.324,0,0,0,.419-.094,11.647,11.647,0,0,0,.741-.908.341.341,0,0,1,.477-.156,8.469,8.469,0,0,1,.88.4c.359.171.714.35,1.073.522a.33.33,0,0,1,.221.335,1.9,1.9,0,0,1-.351,1.222,2.494,2.494,0,0,1-1.6.855,4.227,4.227,0,0,1-1.953-.329,9.06,9.06,0,0,1-4.043-2.917,9.423,9.423,0,0,1-1.264-1.831,3.385,3.385,0,0,1-.4-1.7,2.648,2.648,0,0,1,.919-1.879.784.784,0,0,1,.553-.2h.284" transform="translate(-18.161 -19.448)" fill="#818181"/>
    </g>
  </g>
</svg>
