<svg width="48" height="49" viewBox="0 0 48 49" fill="none" xmlns="http://www.w3.org/2000/svg">
<mask id="mask0_4617_561" style="mask-type:alpha" maskUnits="userSpaceOnUse" x="0" y="0" width="48" height="49">
<rect y="0.5" width="48" height="48" fill="#D9D9D9"/>
</mask>
<g mask="url(#mask0_4617_561)">
<path d="M21.9154 40.3077C21.6154 39.438 21.2321 38.6351 20.7654 37.8992C20.2988 37.1632 19.7488 36.4774 19.1154 35.8419C18.4821 35.2063 17.7988 34.65 17.0654 34.1731C16.3321 33.6962 15.5321 33.3077 14.6654 33.0077C14.7321 33.9744 14.9654 34.8744 15.3654 35.7077C15.7654 36.5411 16.2988 37.2911 16.9654 37.9577C17.6321 38.6244 18.3821 39.1628 19.2154 39.5731C20.0488 39.9833 20.9488 40.2282 21.9154 40.3077ZM26.0653 40.3077C27.032 40.2205 27.9338 39.9769 28.7707 39.5769C29.6075 39.1769 30.3607 38.6436 31.0303 37.9769C31.6998 37.3103 32.2345 36.5571 32.6345 35.7173C33.0345 34.8776 33.2781 33.9744 33.3653 33.0077C32.5017 33.3077 31.6962 33.6911 30.9489 34.1577C30.2015 34.6244 29.5123 35.1744 28.8812 35.8077C28.2501 36.4411 27.6988 37.1327 27.2273 37.8827C26.7557 38.6327 26.3684 39.4411 26.0653 40.3077ZM24 23.077C26.1615 23.077 28.0032 22.3161 29.525 20.7943C31.0468 19.2725 31.8077 17.4309 31.8077 15.2693V12.2923L28.3077 15.2423L24 9.79232L19.6923 15.2423L16.1923 12.2923V15.2693C16.1923 17.4309 16.9532 19.2725 18.475 20.7943C19.9968 22.3161 21.8384 23.077 24 23.077ZM22.6154 43.3076C19.5599 43.3076 16.9627 42.2382 14.8238 40.0993C12.6849 37.9605 11.6155 35.3633 11.6155 32.3077V29.4232C13.8539 29.5693 15.9334 30.1905 17.8539 31.2867C19.7744 32.3828 21.3231 33.7873 22.5 35.5001V25.9846C19.8513 25.6334 17.6379 24.4488 15.8597 22.4308C14.0815 20.4129 13.1924 18.0257 13.1924 15.2693V9.66172C13.1924 8.87199 13.5437 8.32134 14.2462 8.00977C14.9488 7.69824 15.5949 7.80017 16.1847 8.31557L19.3077 11.0155L22.5846 6.87322C22.9508 6.43219 23.4237 6.21167 24.0034 6.21167C24.5832 6.21167 25.0538 6.43219 25.4153 6.87322L28.6923 11.0155L31.8153 8.31557C32.405 7.80017 33.0512 7.69824 33.7537 8.00977C34.4563 8.32134 34.8076 8.87199 34.8076 9.66172V15.2693C34.8076 18.0257 33.9185 20.4129 32.1403 22.4308C30.3621 24.4488 28.1486 25.6334 25.4999 25.9846V35.4809C26.6768 33.7809 28.2223 32.3828 30.1364 31.2867C32.0505 30.1905 34.1204 29.5693 36.346 29.4232V32.3077C36.346 35.3633 35.2785 37.9605 33.1433 40.0993C31.0082 42.2382 28.4155 43.3076 25.3653 43.3076H22.6154Z" fill="#69657B"/>
</g>
</svg>
