<svg width="16" height="16" viewBox="0 0 16 16" fill="none" xmlns="http://www.w3.org/2000/svg">
<path d="M7.26664 2.1333C6.86163 2.1333 6.53331 2.46163 6.53331 2.86663C6.53331 3.27164 6.86163 3.59997 7.26664 3.59997H8.73331C9.13832 3.59997 9.46664 3.27164 9.46664 2.86663C9.46664 2.46163 9.13832 2.1333 8.73331 2.1333H7.26664Z" fill="#FFBC00"/>
<path fill-rule="evenodd" clip-rule="evenodd" d="M3.59998 4.3333C3.59998 3.52328 4.25662 2.86663 5.06664 2.86663C5.06664 4.08166 6.05162 5.06663 7.26664 5.06663H8.73331C9.94834 5.06663 10.9333 4.08166 10.9333 2.86663C11.7433 2.86663 12.4 3.52328 12.4 4.3333V12.4C12.4 13.21 11.7433 13.8666 10.9333 13.8666H5.06664C4.25662 13.8666 3.59998 13.21 3.59998 12.4V4.3333ZM5.79998 7.26663C5.39497 7.26663 5.06664 7.59496 5.06664 7.99997C5.06664 8.40498 5.39497 8.7333 5.79998 8.7333H5.80731C6.21232 8.7333 6.54064 8.40498 6.54064 7.99997C6.54064 7.59496 6.21232 7.26663 5.80731 7.26663H5.79998ZM7.99998 7.26663C7.59497 7.26663 7.26664 7.59496 7.26664 7.99997C7.26664 8.40498 7.59497 8.7333 7.99998 8.7333H10.2C10.605 8.7333 10.9333 8.40498 10.9333 7.99997C10.9333 7.59496 10.605 7.26663 10.2 7.26663H7.99998ZM5.79998 10.2C5.39497 10.2 5.06664 10.5283 5.06664 10.9333C5.06664 11.3383 5.39497 11.6666 5.79998 11.6666H5.80731C6.21232 11.6666 6.54064 11.3383 6.54064 10.9333C6.54064 10.5283 6.21232 10.2 5.80731 10.2H5.79998ZM7.99998 10.2C7.59497 10.2 7.26664 10.5283 7.26664 10.9333C7.26664 11.3383 7.59497 11.6666 7.99998 11.6666H10.2C10.605 11.6666 10.9333 11.3383 10.9333 10.9333C10.9333 10.5283 10.605 10.2 10.2 10.2H7.99998Z" fill="#FFBC00"/>
</svg>
