<svg width="111" height="27" viewBox="0 0 111 27" fill="none" xmlns="http://www.w3.org/2000/svg">
<g clip-path="url(#clip0_2105_13660)">
<path d="M44.2496 16.3074L54.6492 3.96932V0.0239258H37.4892V4.55028H47.8594L37.4892 16.8056V20.7933H54.6917V16.3074H44.2496Z" fill="#614AC9"/>
<path d="M66.8574 15.2836C66.2085 15.734 65.3678 15.9565 64.3336 15.9565C63.4321 15.9565 62.5969 15.7524 61.83 15.3424C61.0612 14.9325 60.4528 14.3313 60.0012 13.5389C59.7154 13.037 59.5218 12.456 59.4167 11.7942H73.7524C73.7524 9.28464 73.3007 7.15016 72.4011 5.39256C71.4996 3.63497 70.3141 2.30023 68.843 1.38834C67.3718 0.476452 65.7752 0.0205078 64.0533 0.0205078C62.0402 0.0205078 60.2574 0.463583 58.707 1.34789C57.1565 2.23404 55.9379 3.4548 55.0512 5.01383C54.1625 6.57287 53.7201 8.37091 53.7201 10.4043C53.7201 12.4376 54.1496 14.2357 55.0124 15.7947C55.8734 17.3538 57.0588 18.5763 58.5687 19.4607C60.0786 20.345 61.8134 20.788 63.775 20.788C65.3383 20.788 66.7302 20.5766 67.9488 20.1538C69.1674 19.7309 70.2146 19.1169 71.0884 18.3098C71.9623 17.5045 72.6905 16.5467 73.2749 15.4362L68.347 13.5334C68.0023 14.2467 67.5064 14.8277 66.8556 15.2781L66.8574 15.2836ZM61.3728 5.29512C62.0494 4.87227 62.8771 4.66085 63.8561 4.66085C64.7834 4.66085 65.5909 4.89249 66.2804 5.35395C66.9699 5.81725 67.5064 6.56919 67.8898 7.61345C67.9009 7.64471 67.912 7.67964 67.923 7.71273H59.673C59.7246 7.53991 59.7781 7.37261 59.8408 7.21634C60.1855 6.35777 60.6962 5.71614 61.3709 5.29328L61.3728 5.29512Z" fill="#614AC9"/>
<path d="M87.8853 0.0239258V10.6522C87.8853 12.3289 87.5184 13.6067 86.7865 14.4855C86.0546 15.3643 84.9835 15.7908 83.5732 15.7632C82.8413 15.7632 82.1831 15.5941 81.6005 15.2558C81.018 14.9175 80.57 14.3641 80.2584 13.592C79.9468 12.8216 79.7901 11.7608 79.7901 10.4077V0.0239258H74.4216V11.6248C74.4216 14.7355 75.0798 17.0409 76.3943 18.5412C77.7087 20.0414 79.5873 20.7915 82.0282 20.7915C83.575 20.7915 84.9227 20.3925 86.0749 19.5946C86.816 19.0817 87.4484 18.4217 87.9756 17.6182L88.2097 20.3043H93.2538V0.0239258H87.8853Z" fill="#614AC9"/>
<path d="M102.313 20.7933C101.041 20.7933 99.8482 20.6021 98.7365 20.2179C97.623 19.8355 96.6422 19.2802 95.796 18.554C94.948 17.8278 94.2861 16.9362 93.8087 15.879L98.2996 13.8181C98.6978 14.4266 99.2398 14.9543 99.9293 15.4029C100.619 15.8533 101.413 16.0776 102.315 16.0776C103.163 16.0776 103.825 15.9581 104.302 15.7209C104.78 15.4838 105.018 15.14 105.018 14.6895C105.018 14.2134 104.826 13.864 104.441 13.6398C104.055 13.4155 103.546 13.2243 102.91 13.0643L101.082 12.5881C99.1477 12.0862 97.6304 11.2865 96.5298 10.1908C95.431 9.09501 94.8798 7.83198 94.8798 6.40531C94.8798 4.37011 95.5416 2.7982 96.8671 1.68776C98.1908 0.57731 100.06 0.0239258 102.472 0.0239258C103.716 0.0239258 104.876 0.209613 105.949 0.579149C107.022 0.948684 107.942 1.4653 108.71 2.12532C109.479 2.78533 110.008 3.55198 110.299 4.42342L105.967 6.40531C105.781 5.87766 105.331 5.46033 104.616 5.15698C103.9 4.85363 103.185 4.70103 102.47 4.70103C101.754 4.70103 101.244 4.84627 100.86 5.13676C100.477 5.42724 100.283 5.82435 100.283 6.32626C100.283 6.67005 100.468 6.95502 100.84 7.17931C101.211 7.40361 101.727 7.59481 102.391 7.75476L104.973 8.38904C106.271 8.7071 107.318 9.21452 108.113 9.91498C108.908 10.6154 109.485 11.395 109.842 12.2535C110.2 13.1121 110.379 13.9523 110.379 14.7704C110.379 15.9599 110.027 17.0097 109.326 17.9216C108.624 18.8335 107.671 19.5413 106.465 20.0414C105.259 20.5433 103.875 20.7951 102.311 20.7951" fill="#614AC9"/>
<path d="M15.8401 18.6972L27.0786 7.48242V18.6972H15.8401Z" fill="#00CFAB"/>
<path d="M7.5199 27H20.8397L27.0784 20.7749H13.7586L7.5199 27Z" fill="#FF004F"/>
<path d="M22.912 0H22.5027L0 22.4553V22.8469V27H4.16649H4.57576L27.0785 4.54474V4.15314V0H22.912Z" fill="#614AC9"/>
<path d="M11.2385 8.30273L3.05176e-05 19.5175V8.30273H11.2385Z" fill="#00CFAB"/>
<path d="M19.5585 0H6.23867L0 6.22511H13.3198L19.5585 0Z" fill="#FF004F"/>
<path d="M95.6228 23.6229C95.4587 23.5162 95.2652 23.4648 95.0421 23.4648C94.8356 23.4648 94.6586 23.5181 94.5111 23.6229C94.4153 23.6909 94.336 23.7791 94.2678 23.8839V22.5474H93.7202V25.9669H94.2401L94.2641 25.5974C94.3323 25.7059 94.4134 25.796 94.5111 25.8677C94.6605 25.9743 94.8375 26.0258 95.0421 26.0258C95.2633 26.0258 95.4569 25.9725 95.6228 25.8677C95.7869 25.7629 95.916 25.614 96.01 25.4209C96.104 25.2297 96.1501 25.0036 96.1501 24.7462C96.1501 24.4888 96.104 24.2608 96.01 24.0696C95.9178 23.8784 95.7887 23.7313 95.6228 23.6247V23.6229ZM95.4956 25.1488C95.4348 25.2665 95.3537 25.3584 95.2523 25.4246C95.1509 25.4908 95.0347 25.5239 94.9038 25.5239C94.7729 25.5239 94.6697 25.4908 94.5738 25.4246C94.478 25.3584 94.4024 25.2665 94.3489 25.1488C94.2954 25.0312 94.2678 24.8969 94.2678 24.7444C94.2678 24.5918 94.2954 24.4557 94.3489 24.338C94.4024 24.2204 94.478 24.1303 94.5757 24.0641C94.6734 23.9979 94.784 23.9667 94.9094 23.9667C95.0439 23.9667 95.1601 23.9998 95.2615 24.0641C95.3629 24.1285 95.4422 24.2204 95.4993 24.338C95.5565 24.4557 95.5859 24.5899 95.5859 24.7444C95.5859 24.8988 95.5564 25.033 95.4956 25.1488Z" fill="#614AC9"/>
<path d="M97.4072 25.3287L96.6587 23.5215H96.0614L97.151 25.9446L97.0164 26.2572C96.9832 26.3344 96.9408 26.395 96.8874 26.4355C96.8339 26.4759 96.7675 26.4962 96.6883 26.4962C96.6551 26.4962 96.6127 26.487 96.561 26.4686C96.5094 26.4502 96.4523 26.4263 96.3896 26.3969L96.1831 26.8418C96.2716 26.8878 96.3638 26.9245 96.4596 26.9539C96.5555 26.9834 96.644 26.9981 96.7214 26.9981C96.8855 26.9981 97.0183 26.9668 97.1233 26.9025C97.2284 26.8381 97.3151 26.748 97.3851 26.6322C97.4552 26.5145 97.5252 26.3785 97.5934 26.2222L98.7291 23.5215H98.1318L97.4072 25.3287Z" fill="#614AC9"/>
<path d="M102.081 24.7148C102.081 24.8748 102.048 25.0127 101.983 25.1322C101.919 25.2517 101.825 25.3436 101.701 25.4098C101.579 25.476 101.437 25.509 101.277 25.509C101.117 25.509 100.982 25.476 100.86 25.4098C100.739 25.3436 100.645 25.2498 100.578 25.1322C100.512 25.0127 100.479 24.8748 100.479 24.7148V22.5454H99.9109V24.7148C99.9109 24.9777 99.9662 25.2094 100.08 25.4079C100.193 25.6065 100.352 25.7609 100.556 25.8694C100.761 25.9779 100.999 26.033 101.268 26.033C101.537 26.033 101.793 25.9779 102 25.8694C102.206 25.7609 102.367 25.6065 102.479 25.4079C102.591 25.2094 102.649 24.9777 102.649 24.7148V22.5454H102.081V24.7148Z" fill="#614AC9"/>
<path d="M105.047 23.623C104.883 23.5163 104.689 23.4648 104.466 23.4648C104.26 23.4648 104.083 23.5182 103.935 23.623C103.836 23.6928 103.755 23.7847 103.686 23.8932L103.659 23.5237H103.144V26.9433H103.692V25.6048C103.758 25.7096 103.838 25.7979 103.935 25.8659C104.085 25.9725 104.262 26.024 104.466 26.024C104.688 26.024 104.881 25.9707 105.047 25.8659C105.211 25.7611 105.34 25.6122 105.434 25.4192C105.528 25.228 105.574 25.0018 105.574 24.7444C105.574 24.487 105.528 24.2591 105.434 24.0679C105.342 23.8767 105.213 23.7296 105.047 23.623ZM104.92 25.1489C104.859 25.2666 104.778 25.3585 104.676 25.4247C104.575 25.4909 104.459 25.5239 104.328 25.5239C104.197 25.5239 104.094 25.4909 103.998 25.4247C103.902 25.3585 103.827 25.2666 103.773 25.1489C103.72 25.0312 103.692 24.897 103.692 24.7444C103.692 24.5918 103.72 24.4558 103.773 24.3381C103.827 24.2205 103.902 24.1304 104 24.0642C104.098 23.998 104.208 23.9668 104.334 23.9668C104.468 23.9668 104.584 23.9998 104.686 24.0642C104.787 24.1285 104.866 24.2205 104.924 24.3381C104.981 24.4558 105.01 24.59 105.01 24.7444C105.01 24.8989 104.981 25.0331 104.92 25.1489Z" fill="#614AC9"/>
<path d="M107.392 23.5953C107.234 23.507 107.036 23.4629 106.797 23.4629C106.61 23.4629 106.45 23.4905 106.314 23.5456C106.179 23.6008 106.067 23.6762 105.978 23.7699C105.89 23.8637 105.818 23.9648 105.762 24.0733L106.262 24.2498C106.321 24.1486 106.395 24.0733 106.483 24.0255C106.572 23.9758 106.673 23.9519 106.787 23.9519C106.911 23.9519 107.012 23.9813 107.088 24.0402C107.165 24.099 107.221 24.1836 107.258 24.2939C107.276 24.3527 107.291 24.4207 107.298 24.4943H106.688C106.382 24.4943 106.142 24.5605 105.971 24.6947C105.799 24.8289 105.713 25.0219 105.713 25.2756C105.713 25.5128 105.794 25.6966 105.956 25.8272C106.118 25.9577 106.345 26.0221 106.64 26.0221C106.935 26.0221 107.156 25.9265 107.298 25.7371C107.307 25.7261 107.313 25.7114 107.32 25.6985L107.335 25.9632H107.849L107.864 24.6248C107.864 24.3711 107.825 24.1578 107.746 23.985C107.667 23.8122 107.549 23.6817 107.39 23.5953H107.392ZM107.235 25.2536C107.184 25.3473 107.114 25.4209 107.025 25.4779C106.935 25.5349 106.83 25.5643 106.71 25.5643C106.574 25.5643 106.467 25.5367 106.389 25.4834C106.312 25.4301 106.275 25.3565 106.275 25.2609C106.275 25.1506 106.319 25.0642 106.408 25.0054C106.496 24.9447 106.649 24.9153 106.869 24.9153H107.315V24.9539C107.315 25.0605 107.289 25.1617 107.239 25.2536H107.235Z" fill="#614AC9"/>
<path d="M110.382 25.9649L109.486 24.7056L110.323 23.5234H109.676L109.182 24.2625L108.683 23.5234H108.036L108.882 24.6982L107.973 25.9649H108.629L109.186 25.1413L109.732 25.9649H110.382Z" fill="#614AC9"/>
</g>
<defs>
<clipPath id="clip0_2105_13660">
<rect width="110.382" height="27" fill="white"/>
</clipPath>
</defs>
</svg>
