<svg width="20" height="18" viewBox="0 0 20 18" fill="none" xmlns="http://www.w3.org/2000/svg">
<path d="M2.30773 17.5C1.8026 17.5 1.37503 17.325 1.02503 16.975C0.675031 16.625 0.500031 16.1974 0.500031 15.6923V5.30771C0.500031 4.80258 0.675031 4.37501 1.02503 4.02501C1.37503 3.67501 1.8026 3.50001 2.30773 3.50001H6.50003V1.80774C6.50003 1.30262 6.67503 0.875061 7.02503 0.525061C7.37503 0.175061 7.8026 6.10352e-05 8.30773 6.10352e-05H11.6923C12.1974 6.10352e-05 12.625 0.175061 12.975 0.525061C13.325 0.875061 13.5 1.30262 13.5 1.80774V3.50001H17.6923C18.1974 3.50001 18.625 3.67501 18.975 4.02501C19.325 4.37501 19.5 4.80258 19.5 5.30771V15.6923C19.5 16.1974 19.325 16.625 18.975 16.975C18.625 17.325 18.1974 17.5 17.6923 17.5H2.30773ZM2.30773 16H17.6923C17.7692 16 17.8397 15.9679 17.9039 15.9038C17.968 15.8397 18 15.7692 18 15.6923V5.30771C18 5.23078 17.968 5.16025 17.9039 5.09614C17.8397 5.03204 17.7692 4.99999 17.6923 4.99999H2.30773C2.2308 4.99999 2.16027 5.03204 2.09616 5.09614C2.03206 5.16025 2.00001 5.23078 2.00001 5.30771V15.6923C2.00001 15.7692 2.03206 15.8397 2.09616 15.9038C2.16027 15.9679 2.2308 16 2.30773 16ZM8.00001 3.50001H12V1.80774C12 1.7308 11.968 1.66029 11.9039 1.59619C11.8397 1.53207 11.7692 1.50001 11.6923 1.50001H8.30773C8.2308 1.50001 8.16027 1.53207 8.09616 1.59619C8.03206 1.66029 8.00001 1.7308 8.00001 1.80774V3.50001Z" fill="#393647"/>
</svg>
