<svg width="25" height="25" viewBox="0 0 25 25" fill="none" xmlns="http://www.w3.org/2000/svg">
<mask id="mask0_1403_11309" style="mask-type:alpha" maskUnits="userSpaceOnUse" x="0" y="0" width="25" height="25">
<rect x="0.499939" y="0.5" width="24" height="24" fill="#D9D9D9"/>
</mask>
<g mask="url(#mask0_1403_11309)">
<path d="M8.37494 7.24615L11.0788 3.69808C11.2582 3.45789 11.4714 3.2815 11.7182 3.1689C11.965 3.0563 12.2256 3 12.4999 3C12.7743 3 13.0348 3.0563 13.2816 3.1689C13.5284 3.2815 13.7416 3.45789 13.9211 3.69808L16.6249 7.24615L20.7595 8.6423C21.1544 8.76923 21.4624 8.99314 21.6835 9.31403C21.9047 9.63493 22.0153 9.98941 22.0153 10.3775C22.0153 10.5566 21.9891 10.7351 21.9367 10.9132C21.8844 11.0912 21.7984 11.2618 21.6787 11.425L18.9864 15.1615L19.0864 19.1269C19.1031 19.6534 18.9295 20.0973 18.5658 20.4583C18.202 20.8194 17.7781 21 17.2941 21C17.28 21 17.1127 20.9782 16.7922 20.9346L12.4999 19.7038L8.20761 20.9346C8.12428 20.9679 8.03827 20.9871 7.94959 20.9923C7.86091 20.9974 7.7796 21 7.70569 21C7.21724 21 6.79225 20.8194 6.43071 20.4583C6.06918 20.0973 5.89675 19.6534 5.91341 19.1269L6.01341 15.1365L3.33649 11.425C3.21682 11.2611 3.13081 11.0899 3.07846 10.9112C3.02611 10.7324 2.99994 10.5537 2.99994 10.375C2.99994 9.99786 3.10979 9.64714 3.32949 9.32283C3.54919 8.99849 3.85601 8.76845 4.24994 8.6327L8.37494 7.24615Z" fill="#614AC9"/>
</g>
</svg>
