<svg width="40" height="34" viewBox="0 0 40 34" fill="none" xmlns="http://www.w3.org/2000/svg">
<path fill-rule="evenodd" clip-rule="evenodd" d="M5.59987 5C2.9489 5 0.799866 7.14903 0.799866 9.8V29C0.799866 31.651 2.9489 33.8 5.59987 33.8H34.3999C37.0508 33.8 39.1999 31.651 39.1999 29V9.8C39.1999 7.14903 37.0508 5 34.3999 5H30.594C29.9575 5 29.347 4.74714 28.8969 4.29706L26.2058 1.60589C25.3056 0.705713 24.0847 0.2 22.8116 0.2H17.1881C15.9151 0.2 14.6942 0.705711 13.794 1.60589L11.1028 4.29706C10.6527 4.74714 10.0423 5 9.40575 5H5.59987ZM19.9999 26.6C23.9763 26.6 27.1999 23.3765 27.1999 19.4C27.1999 15.4236 23.9763 12.2 19.9999 12.2C16.0234 12.2 12.7999 15.4236 12.7999 19.4C12.7999 23.3765 16.0234 26.6 19.9999 26.6Z" fill="#0C4C91"/>
</svg>
